<svg xmlns="http://www.w3.org/2000/svg" xmlns:xlink="http://www.w3.org/1999/xlink" width="500" zoomAndPan="magnify" viewBox="0 0 375 374.999991" height="500" preserveAspectRatio="xMidYMid meet" version="1.0"><defs><g/><clipPath id="2bdba04551"><path d="M 31 25 L 153 25 L 153 126 L 31 126 Z M 31 25 " clip-rule="nonzero"/></clipPath><clipPath id="11a2907d3c"><path d="M 230.828125 125.011719 L 143.453125 224.875 L -3.199219 96.566406 L 84.171875 -3.296875 Z M 230.828125 125.011719 " clip-rule="nonzero"/></clipPath><clipPath id="840e5ad124"><path d="M 230.828125 125.011719 L 143.453125 224.875 L -3.199219 96.566406 L 84.171875 -3.296875 Z M 230.828125 125.011719 " clip-rule="nonzero"/></clipPath><clipPath id="6105dfb339"><path d="M 27 78 L 165 78 L 165 212 L 27 212 Z M 27 78 " clip-rule="nonzero"/></clipPath><clipPath id="85c1756732"><path d="M 230.828125 125.011719 L 143.453125 224.875 L -3.199219 96.566406 L 84.171875 -3.296875 Z M 230.828125 125.011719 " clip-rule="nonzero"/></clipPath><clipPath id="dd2ddf47b8"><path d="M 230.828125 125.011719 L 143.453125 224.875 L -3.199219 96.566406 L 84.171875 -3.296875 Z M 230.828125 125.011719 " clip-rule="nonzero"/></clipPath><clipPath id="e716ea4b4e"><path d="M 117 91 L 326.28125 91 L 326.28125 184 L 117 184 Z M 117 91 " clip-rule="nonzero"/></clipPath><clipPath id="bb2ed5914b"><rect x="0" width="210" y="0" height="93"/></clipPath><clipPath id="742314edb9"><rect x="0" width="327" y="0" height="224"/></clipPath></defs><g transform="matrix(1, 0, 0, 1, 3, 67)"><g clip-path="url(#742314edb9)"><g clip-path="url(#2bdba04551)"><g clip-path="url(#11a2907d3c)"><g clip-path="url(#840e5ad124)"><path fill="#3c3c3b" d="M 31.484375 72.007812 C 41.792969 45.777344 68.960938 23.457031 97.042969 25.144531 C 110.574219 25.925781 123.4375 31.085938 133.789062 40.144531 C 143.121094 48.304688 149.878906 59.410156 152.148438 71.777344 C 155.023438 87.832031 150.027344 103.089844 139.035156 115.136719 C 131.527344 123.460938 119.847656 127.007812 108.566406 125.714844 C 107.355469 125.554688 107.082031 125.09375 107.050781 124.613281 C 107.160156 124.484375 107.71875 123.847656 108.808594 123.894531 C 114.109375 124.023438 120.644531 120.9375 125.519531 118.207031 C 131.765625 114.417969 136.574219 108.921875 139.371094 102.117188 C 144.417969 89.382812 142.707031 76.378906 134.863281 65.226562 C 112.332031 33.273438 61.269531 35.628906 41.109375 68.320312 Z M 31.484375 72.007812 " fill-opacity="1" fill-rule="nonzero"/></g></g></g><g clip-path="url(#6105dfb339)"><g clip-path="url(#85c1756732)"><g clip-path="url(#dd2ddf47b8)"><path fill="#c40300" d="M 47.441406 140.386719 C 32.917969 126.550781 24.976562 106.738281 27.613281 86.703125 C 27.863281 84.808594 28.214844 82.914062 28.65625 81.027344 L 36.378906 78.457031 C 32.617188 90.09375 33.898438 102.738281 40.234375 113.542969 C 41.464844 115.75 42.917969 117.699219 44.613281 119.632812 C 56.738281 133.625 78.242188 140.257812 95.644531 144.871094 C 104.222656 147.1875 112.914062 149.378906 121.492188 151.695312 C 129.097656 153.832031 136.976562 156.4375 144.070312 159.9375 C 155.394531 165.558594 164.359375 175.429688 164.152344 188.566406 C 163.929688 197.851562 158.5625 207.597656 149.503906 210.726562 C 136.339844 215.457031 129.195312 204.015625 131.128906 195.101562 C 135.507812 201.191406 143.367188 205.359375 152.347656 199.222656 C 156.132812 196.441406 158.386719 192.320312 158.082031 187.769531 C 157.875 184.652344 156.484375 181.855469 154.40625 179.589844 C 149.996094 174.828125 142.488281 172.320312 136.367188 170.800781 C 127.070312 168.53125 117.46875 167.128906 108.21875 165.578125 C 97.386719 163.773438 86.632812 161.359375 76.40625 157.832031 C 65.667969 153.851562 55.796875 148.375 47.441406 140.386719 Z M 47.441406 140.386719 " fill-opacity="1" fill-rule="nonzero"/></g></g></g><g clip-path="url(#e716ea4b4e)"><g transform="matrix(1, 0, 0, 1, 117, 91)"><g clip-path="url(#bb2ed5914b)"><g fill="#c40300" fill-opacity="1"><g transform="translate(4.298485, 70.67876)"><g><path d="M 51.078125 -15.90625 C 51.847656 -15.90625 52.234375 -14.867188 52.234375 -12.796875 C 52.234375 -11.679688 51.757812 -10.320312 50.8125 -8.71875 C 49.863281 -7.125 48.632812 -5.664062 47.125 -4.34375 C 45.625 -3.019531 43.953125 -1.929688 42.109375 -1.078125 C 40.273438 -0.222656 38.484375 0.203125 36.734375 0.203125 C 34.078125 0.203125 32.242188 -0.457031 31.234375 -1.78125 C 30.222656 -3.113281 29.71875 -5.070312 29.71875 -7.65625 C 29.71875 -10.238281 30.726562 -14.671875 32.75 -20.953125 C 26.550781 -21.222656 22.035156 -21.359375 19.203125 -21.359375 L 18.265625 -21.359375 C 17.453125 -16.367188 17.046875 -11.132812 17.046875 -5.65625 C 17.046875 -3.226562 16.125 -1.566406 14.28125 -0.671875 C 13.425781 -0.265625 12.601562 0.113281 11.8125 0.46875 C 11.03125 0.832031 10.191406 1.015625 9.296875 1.015625 C 7.054688 1.015625 5.9375 -1.003906 5.9375 -5.046875 C 5.9375 -9.097656 6.851562 -14.289062 8.6875 -20.625 C 6.71875 -20.394531 4.976562 -20.164062 3.46875 -19.9375 C 1.96875 -19.71875 0.789062 -19.609375 -0.0625 -19.609375 C -0.914062 -19.609375 -1.34375 -19.832031 -1.34375 -20.28125 C -1.34375 -21.632812 -0.242188 -23.003906 1.953125 -24.390625 C 4.203125 -25.785156 7.234375 -26.84375 11.046875 -27.5625 C 15.273438 -38.300781 20.441406 -45.46875 26.546875 -49.0625 C 28.796875 -50.40625 31.179688 -51.078125 33.703125 -51.078125 C 38.191406 -51.035156 41.4375 -49.820312 43.4375 -47.4375 C 45.4375 -45.0625 46.445312 -41.90625 46.46875 -37.96875 C 46.488281 -34.039062 45.285156 -28.929688 42.859375 -22.640625 C 41.960938 -20.210938 41.128906 -18.007812 40.359375 -16.03125 C 39.597656 -14.0625 39.21875 -12.46875 39.21875 -11.25 C 39.21875 -10.039062 39.304688 -9.117188 39.484375 -8.484375 C 39.671875 -7.859375 40.097656 -7.546875 40.765625 -7.546875 C 41.984375 -7.546875 44.835938 -9.882812 49.328125 -14.5625 C 50.140625 -15.457031 50.722656 -15.90625 51.078125 -15.90625 Z M 36.734375 -35.984375 C 36.734375 -39.890625 35.269531 -41.84375 32.34375 -41.84375 C 29.382812 -41.84375 26.835938 -40.597656 24.703125 -38.109375 C 22.566406 -35.617188 20.914062 -32.285156 19.75 -28.109375 L 35.046875 -27.90625 C 36.171875 -31.5 36.734375 -34.191406 36.734375 -35.984375 Z M 36.734375 -35.984375 "/></g></g></g><g fill="#c40300" fill-opacity="1"><g transform="translate(51.134125, 70.67876)"><g><path d="M 15.296875 -16.515625 C 15.296875 -13.816406 16.488281 -12.46875 18.875 -12.46875 C 21.476562 -12.46875 23.789062 -14.039062 25.8125 -17.1875 C 26.351562 -19.5625 27.375 -23.691406 28.875 -29.578125 C 30.382812 -35.460938 31.269531 -39.082031 31.53125 -40.4375 C 32.125 -43.082031 32.789062 -45.191406 33.53125 -46.765625 C 34.269531 -48.335938 35.203125 -49.125 36.328125 -49.125 C 38.390625 -49.125 39.96875 -48.660156 41.0625 -47.734375 C 42.164062 -46.816406 42.71875 -45.15625 42.71875 -42.75 C 42.71875 -40.351562 41.910156 -37.648438 40.296875 -34.640625 C 40.023438 -33.023438 39.734375 -31.335938 39.421875 -29.578125 C 39.109375 -27.828125 38.703125 -25.535156 38.203125 -22.703125 C 37.710938 -19.878906 36.796875 -15.070312 35.453125 -8.28125 C 40.753906 -10.445312 44 -12.222656 45.1875 -13.609375 C 46.375 -15.003906 47.304688 -15.703125 47.984375 -15.703125 C 48.660156 -15.703125 49 -15.003906 49 -13.609375 C 49 -12.222656 48.582031 -11.007812 47.75 -9.96875 C 46.914062 -8.9375 45.609375 -7.769531 43.828125 -6.46875 C 42.054688 -5.164062 38.8125 -3.503906 34.09375 -1.484375 C 31.757812 8.492188 27.492188 14.785156 21.296875 17.390625 C 19.585938 18.109375 17.789062 18.46875 15.90625 18.46875 C 11.863281 18.46875 8.648438 17.703125 6.265625 16.171875 C 3.523438 14.460938 2.15625 11.925781 2.15625 8.5625 C 2.15625 5.550781 6.648438 2.359375 15.640625 -1.015625 C 20.128906 -2.671875 22.84375 -3.632812 23.78125 -3.90625 C 23.78125 -4.988281 23.894531 -6.382812 24.125 -8.09375 C 21.34375 -6.519531 18.300781 -5.734375 15 -5.734375 C 11.695312 -5.734375 9.210938 -6.726562 7.546875 -8.71875 C 5.878906 -10.71875 5.046875 -13.472656 5.046875 -16.984375 C 5.046875 -18.640625 5.328125 -20.410156 5.890625 -22.296875 C 6.453125 -24.191406 7.082031 -26.113281 7.78125 -28.0625 C 8.476562 -30.019531 9.109375 -31.941406 9.671875 -33.828125 C 10.234375 -35.710938 10.515625 -37.46875 10.515625 -39.09375 C 10.515625 -42.101562 9.59375 -43.609375 7.75 -43.609375 C 7.125 -43.609375 6.550781 -43.425781 6.03125 -43.0625 C 5.507812 -42.707031 4.988281 -42.328125 4.46875 -41.921875 C 3.957031 -41.515625 3.429688 -41.128906 2.890625 -40.765625 C 2.359375 -40.410156 1.742188 -40.234375 1.046875 -40.234375 C 0.347656 -40.234375 0 -40.835938 0 -42.046875 C 0 -44.523438 1.144531 -46.546875 3.4375 -48.109375 C 5.632812 -49.734375 8.257812 -50.546875 11.3125 -50.546875 C 14.375 -50.546875 16.671875 -49.421875 18.203125 -47.171875 C 19.367188 -45.515625 19.953125 -43.628906 19.953125 -41.515625 C 19.953125 -39.398438 19.703125 -37.363281 19.203125 -35.40625 C 18.710938 -33.457031 18.1875 -31.445312 17.625 -29.375 C 17.0625 -27.3125 16.53125 -25.210938 16.03125 -23.078125 C 15.539062 -20.941406 15.296875 -18.753906 15.296875 -16.515625 Z M 17.71875 12.40625 C 19.519531 10.914062 21.050781 7.769531 22.3125 2.96875 C 19.925781 3.820312 17.898438 4.515625 16.234375 5.046875 C 14.578125 5.585938 13.207031 6.082031 12.125 6.53125 C 11.050781 6.976562 10.265625 7.414062 9.765625 7.84375 C 9.273438 8.269531 9.03125 8.78125 9.03125 9.375 C 9.03125 10.488281 9.703125 11.40625 11.046875 12.125 C 12.398438 12.84375 13.679688 13.210938 14.890625 13.234375 C 16.109375 13.265625 17.050781 12.988281 17.71875 12.40625 Z M 17.71875 12.40625 "/></g></g></g><g fill="#c40300" fill-opacity="1"><g transform="translate(94.735082, 70.67876)"><g><path d="M 22.109375 -30.0625 C 26.015625 -30.0625 27.96875 -29.070312 27.96875 -27.09375 C 27.96875 -24.800781 25.722656 -23.65625 21.234375 -23.65625 C 20.242188 -23.65625 19.164062 -23.832031 18 -24.1875 C 16.6875 -23.289062 15.679688 -22.164062 14.984375 -20.8125 C 14.296875 -19.46875 13.953125 -17.523438 13.953125 -14.984375 C 13.953125 -12.453125 14.953125 -10.578125 16.953125 -9.359375 C 18.953125 -8.148438 21.3125 -7.546875 24.03125 -7.546875 C 26.75 -7.546875 28.945312 -7.984375 30.625 -8.859375 C 32.3125 -9.734375 33.785156 -10.6875 35.046875 -11.71875 C 36.304688 -12.757812 37.328125 -13.71875 38.109375 -14.59375 C 38.890625 -15.46875 39.460938 -15.90625 39.828125 -15.90625 C 40.179688 -15.90625 40.472656 -15.664062 40.703125 -15.1875 C 40.929688 -14.71875 41.046875 -14.101562 41.046875 -13.34375 C 41.046875 -9.75 39.054688 -6.59375 35.078125 -3.875 C 31.097656 -1.15625 26.347656 0.203125 20.828125 0.203125 C 12.203125 0.203125 6.609375 -2.289062 4.046875 -7.28125 C 3.148438 -9.03125 2.703125 -11.140625 2.703125 -13.609375 C 2.703125 -20.035156 5.910156 -24.53125 12.328125 -27.09375 C 9.046875 -29.382812 7.40625 -32.84375 7.40625 -37.46875 C 7.40625 -39.664062 8.015625 -41.710938 9.234375 -43.609375 C 8.109375 -44.859375 7.195312 -46.179688 6.5 -47.578125 C 5.800781 -48.972656 5.453125 -50.03125 5.453125 -50.75 C 5.453125 -52 5.90625 -52.625 6.8125 -52.625 C 7.4375 -52.625 8.207031 -52.140625 9.125 -51.171875 C 10.050781 -50.210938 10.804688 -49.441406 11.390625 -48.859375 C 11.972656 -48.273438 12.578125 -47.800781 13.203125 -47.4375 C 17.023438 -49.78125 21.519531 -50.953125 26.6875 -50.953125 C 31.851562 -50.953125 35.289062 -49.515625 37 -46.640625 C 37.625 -45.554688 37.9375 -44.226562 37.9375 -42.65625 C 37.9375 -40.28125 36.898438 -38.28125 34.828125 -36.65625 C 32.765625 -35.039062 30.046875 -34.234375 26.671875 -34.234375 C 23.304688 -34.234375 20.164062 -35.3125 17.25 -37.46875 C 17.207031 -37.289062 17.1875 -37.113281 17.1875 -36.9375 L 17.1875 -35.453125 C 17.1875 -34.640625 17.441406 -33.679688 17.953125 -32.578125 C 18.472656 -31.484375 19.113281 -30.578125 19.875 -29.859375 C 20.550781 -29.992188 21.296875 -30.0625 22.109375 -30.0625 Z M 30.453125 -41.640625 C 30.453125 -43.398438 29.015625 -44.28125 26.140625 -44.28125 C 23.265625 -44.28125 20.953125 -43.398438 19.203125 -41.640625 C 21.628906 -40.160156 24.109375 -39.421875 26.640625 -39.421875 C 29.179688 -39.421875 30.453125 -40.160156 30.453125 -41.640625 Z M 30.453125 -41.640625 "/></g></g></g><g fill="#c40300" fill-opacity="1"><g transform="translate(137.123747, 70.67876)"><g><path d="M 68.328125 -15.90625 C 69.097656 -15.90625 69.484375 -14.867188 69.484375 -12.796875 C 69.484375 -11.679688 69.007812 -10.320312 68.0625 -8.71875 C 67.125 -7.125 65.898438 -5.664062 64.390625 -4.34375 C 62.890625 -3.019531 61.21875 -1.929688 59.375 -1.078125 C 57.53125 -0.222656 55.582031 0.203125 53.53125 0.203125 C 51.488281 0.203125 49.894531 -0.457031 48.75 -1.78125 C 47.601562 -3.113281 47.03125 -4.597656 47.03125 -6.234375 C 47.03125 -7.867188 47.300781 -9.71875 47.84375 -11.78125 C 48.382812 -13.851562 48.96875 -16.015625 49.59375 -18.265625 C 51.300781 -24.234375 52.179688 -28.429688 52.234375 -30.859375 C 52.234375 -31.898438 52.097656 -32.695312 51.828125 -33.25 C 51.554688 -33.8125 51.039062 -34.09375 50.28125 -34.09375 C 48.925781 -34.09375 47.484375 -33.285156 45.953125 -31.671875 C 44.429688 -30.054688 42.992188 -27.988281 41.640625 -25.46875 C 38.546875 -19.71875 36.910156 -14.101562 36.734375 -8.625 C 36.816406 -8 36.898438 -7.367188 36.984375 -6.734375 C 37.078125 -6.109375 37.125 -5.4375 37.125 -4.71875 C 37.125 -3.28125 36.414062 -1.960938 35 -0.765625 C 33.59375 0.421875 32.015625 1.015625 30.265625 1.015625 C 29.222656 1.015625 28.453125 0.507812 27.953125 -0.5 C 27.460938 -1.507812 27.21875 -2.757812 27.21875 -4.25 C 27.21875 -5.726562 27.554688 -7.75 28.234375 -10.3125 C 28.910156 -12.875 29.648438 -15.59375 30.453125 -18.46875 C 32.617188 -26.0625 33.722656 -31.722656 33.765625 -35.453125 C 33.765625 -37.335938 33.523438 -38.816406 33.046875 -39.890625 C 32.578125 -40.972656 31.671875 -41.515625 30.328125 -41.515625 C 27.898438 -41.515625 25.492188 -39.785156 23.109375 -36.328125 C 20.734375 -32.867188 18.601562 -27.5 16.71875 -20.21875 C 16.21875 -18.332031 15.832031 -16.691406 15.5625 -15.296875 L 15.5 -14.015625 C 16.351562 -9.878906 16.78125 -7.1875 16.78125 -5.9375 C 16.78125 -3.320312 15.859375 -1.566406 14.015625 -0.671875 C 13.160156 -0.265625 12.335938 0.113281 11.546875 0.46875 C 10.765625 0.832031 9.925781 1.015625 9.03125 1.015625 C 6.78125 1.015625 5.65625 -1.128906 5.65625 -5.421875 C 5.65625 -9.710938 6.847656 -18.101562 9.234375 -30.59375 C 10.085938 -35.082031 10.515625 -37.597656 10.515625 -38.140625 C 10.515625 -41.785156 9.59375 -43.609375 7.75 -43.609375 C 7.125 -43.609375 6.550781 -43.425781 6.03125 -43.0625 C 5.507812 -42.707031 4.988281 -42.328125 4.46875 -41.921875 C 3.957031 -41.515625 3.429688 -41.128906 2.890625 -40.765625 C 2.359375 -40.410156 1.742188 -40.234375 1.046875 -40.234375 C 0.347656 -40.234375 0 -40.835938 0 -42.046875 C 0 -44.523438 1.144531 -46.546875 3.4375 -48.109375 C 5.632812 -49.734375 8.304688 -50.546875 11.453125 -50.546875 C 15.492188 -50.546875 17.875 -48.65625 18.59375 -44.875 C 18.78125 -43.757812 18.914062 -42.570312 19 -41.3125 C 22.320312 -47.550781 26.523438 -50.671875 31.609375 -50.671875 C 37.128906 -50.671875 40.296875 -48.019531 41.109375 -42.71875 C 41.378906 -41.195312 41.488281 -39.5625 41.4375 -37.8125 L 41.4375 -37.265625 C 44.363281 -41.304688 47.828125 -43.328125 51.828125 -43.328125 C 57.484375 -43.328125 60.3125 -39.914062 60.3125 -33.09375 C 60.3125 -30.125 59.847656 -26.648438 58.921875 -22.671875 C 58.003906 -18.703125 57.332031 -15.851562 56.90625 -14.125 C 56.476562 -12.394531 56.265625 -11.054688 56.265625 -10.109375 C 56.265625 -8.398438 56.859375 -7.546875 58.046875 -7.546875 C 59.242188 -7.546875 62.085938 -9.882812 66.578125 -14.5625 C 67.390625 -15.457031 67.972656 -15.90625 68.328125 -15.90625 Z M 68.328125 -15.90625 "/></g></g></g></g></g></g></g></g></svg>